<svg enable-background="new 0 0 100 100" height="400" viewBox="0 0 100 100" width="400" xmlns="http://www.w3.org/2000/svg"><ellipse cx="50" cy="50" fill="#fefdef" rx="42" ry="26"/><circle cx="50" cy="50" fill="#a2a2cc" r="22"/><circle cx="50" cy="50" fill="#6b6aaf" r="9"/><g fill="#1f212b"><path d="m70.918 55.017c-.269-.072-.54.09-.611.355-.087.329-.182.654-.283.977-.083.264.062.545.325.628.05.015.101.023.151.023.212 0 .409-.136.477-.349.107-.338.206-.679.297-1.023.07-.268-.089-.541-.356-.611z"/><path d="m69.953 58.041c-.252-.111-.549.007-.657.261-.289.67-.614 1.327-.966 1.953-.136.241-.05.546.19.681.079.043.163.064.246.064.175 0 .344-.092.436-.255.369-.657.71-1.346 1.013-2.047.108-.254-.008-.548-.262-.657z"/><path d="m94.707 93.293-23.081-23.081c12.382-7.382 21.374-18.378 21.374-20.212 0-2.802-20.991-27-43-27-6.917 0-13.733 2.392-19.829 5.757l-23.464-23.464c-.391-.391-1.023-.391-1.414 0s-.391 1.023 0 1.414l23.081 23.081c-12.382 7.382-21.374 18.378-21.374 20.212 0 2.802 20.991 27 43 27 6.917 0 13.733-2.392 19.829-5.757l23.464 23.464c.195.195.451.293.707.293s.512-.098.707-.293c.391-.391.391-1.023 0-1.414zm-44.707-68.293c20.636 0 39.781 22.196 40.969 25-.777 1.835-9.247 11.974-20.791 18.764l-3.935-3.935c.445-.489.876-.993 1.282-1.526.167-.22.124-.533-.096-.701-.22-.166-.533-.124-.701.096-.378.497-.78.967-1.193 1.423l-8.509-8.509c1.232-1.541 1.974-3.49 1.974-5.612 0-4.963-4.037-9-9-9-2.122 0-4.071.742-5.611 1.975l-8.49-8.49c3.731-3.395 8.671-5.485 14.101-5.485 11.579 0 21 9.421 21 21 0 1.148-.093 2.299-.276 3.419-.045.272.14.53.412.574.265.046.529-.139.574-.412.192-1.174.29-2.379.29-3.581 0-12.131-9.869-22-22-22-5.706 0-10.912 2.185-14.825 5.761l-3.546-3.546c5.646-3.056 11.936-5.215 18.371-5.215zm-7.025 19.389c-1.233 1.54-1.975 3.489-1.975 5.611 0 2.133.76 4.201 2.139 5.824.178.211.494.237.705.057.21-.179.235-.494.057-.705-1.226-1.442-1.901-3.28-1.901-5.176 0-1.846.634-3.542 1.688-4.898l11.209 11.209c-1.355 1.055-3.051 1.689-4.897 1.689-1.149 0-2.257-.238-3.294-.707-.249-.113-.548-.003-.661.249-.114.251-.003.548.249.661 1.167.529 2.414.797 3.706.797 2.122 0 4.071-.742 5.611-1.975l8.516 8.516c-3.833 3.503-8.81 5.459-14.127 5.459-11.579 0-21-9.421-21-21 0-5.43 2.09-10.37 5.484-14.101zm2.127-.701c1.356-1.054 3.052-1.688 4.898-1.688 4.411 0 8 3.589 8 8 0 1.846-.634 3.542-1.688 4.898zm4.898 31.312c-20.636 0-39.781-22.196-40.969-25 .777-1.835 9.247-11.974 20.791-18.764l3.938 3.938c-3.575 3.914-5.76 9.12-5.76 14.826 0 12.131 9.869 22 22 22 5.587 0 10.816-2.06 14.836-5.75l3.535 3.535c-5.646 3.056-11.936 5.215-18.371 5.215z"/></g></svg>