<svg height="56" viewBox="0 0 168 56" width="168" xmlns="http://www.w3.org/2000/svg"><g fill="none" fill-rule="evenodd"><rect fill="#2c3038" height="56" rx="3" width="168"/><g fill-rule="nonzero"><path d="m37.985 32 5.559-3.043c.628-.344 1.287-1.221 0-1.923l-5.562-3.034-3.982 4.012z" fill="#f49c71"/><path d="m33.735 28-12.735 12.833c.288.036.634-.04 1.031-.258l15.69-8.588z" fill="#d54a6d"/><path d="m33.745 27.777 3.981-4.012-15.685-8.558c-.341-.186-.712-.25-1.041-.178z" fill="#add69e"/><path d="m33.703 27.748-12.745-12.748c-.527.117-.958.573-.958 1.489v22.561c0 .862.34 1.469.967 1.53l12.736-12.833z" fill="#24b9c2"/></g><path d="m69.432 33.304v.976c0 3.904-2.88 5.952-5.936 5.952-3.872 0-6.496-2.88-6.496-6.448 0-3.648 2.96-6.464 6.528-6.464 3.12 0 5.104 1.824 5.632 3.824l-2.528.768c-.272-1.072-1.44-2.128-3.136-2.128-2.112 0-3.856 1.712-3.856 3.984 0 2.176 1.584 4 3.856 4 1.696 0 2.928-.88 3.232-2.112h-3.808v-2.352zm1.216 2.48c0-2.544 2.096-4.48 4.688-4.48 2.576 0 4.64 1.888 4.64 4.432 0 2.576-2.096 4.496-4.672 4.496-2.592 0-4.656-1.872-4.656-4.448zm2.56-.032c0 1.296.944 2.192 2.112 2.192s2.096-.896 2.096-2.192c0-1.28-.944-2.176-2.112-2.176s-2.096.896-2.096 2.176zm8.016.032c0-2.544 2.096-4.48 4.688-4.48 2.576 0 4.64 1.888 4.64 4.432 0 2.576-2.096 4.496-4.672 4.496-2.592 0-4.656-1.872-4.656-4.448zm2.56-.032c0 1.296.944 2.192 2.112 2.192s2.096-.896 2.096-2.192c0-1.28-.944-2.176-2.112-2.176s-2.096.896-2.096 2.176zm17.136-4.256v8.416c0 2.944-1.984 4.4-4.608 4.4-2.736 0-4.176-1.504-4.496-3.072l2.288-.704c.224.8.736 1.6 2.192 1.6 1.152 0 2.144-.624 2.144-2.16v-1.072h-.032c-.768.992-1.856 1.136-2.464 1.136-2.464 0-4.128-1.92-4.128-4.32 0-2.16 1.568-4.352 4.032-4.352.528 0 1.712.112 2.592 1.168h.032v-1.04zm-2.416 4.224c0-1.264-.912-2.128-2.08-2.128-1.152 0-2.08.88-2.08 2.128 0 1.28.912 2.144 2.08 2.144 1.152 0 2.08-.864 2.08-2.144zm4.736-8.72h2.512v13.04h-2.512zm6.896 7.808h3.68c-.048-.624-.576-1.488-1.824-1.488-1.12 0-1.76.928-1.856 1.488zm6.144 1.648h-6.208c.16 1.072 1.072 1.68 2.112 1.68.72 0 1.52-.432 1.808-1.136l2.048.704c-.56 1.648-2.144 2.528-3.824 2.528-2.592 0-4.688-1.824-4.688-4.48 0-2.464 2.064-4.464 4.528-4.464 2.544 0 4.256 1.744 4.256 4.272 0 .304 0 .608-.032.896zm15.264-4.928c0 2.768-1.952 4.096-4.576 4.096h-1.968v4.416h-2.592v-12.528h4.656c2.512 0 4.48 1.36 4.48 4.016zm-2.608.064c0-1.216-1.024-1.632-2.096-1.632h-1.84v3.248h1.856c1.024 0 2.08-.448 2.08-1.616zm4.24-4.592h2.512v13.04h-2.512zm7.168 13.2c-1.488 0-2.832-.96-2.832-2.544v-.064c0-2.048 2.096-2.624 3.76-2.624h.832c.464 0 .672-.24.672-.592 0-.544-.448-1.056-1.344-1.056-.768 0-1.344.448-1.536 1.168l-2.192-.496c.288-1.824 2.048-2.688 3.84-2.688 2.128 0 3.68 1.136 3.68 3.44v5.296h-2.304v-1.056l-.032-.016c-.64.912-1.616 1.232-2.544 1.232zm.72-1.824c1.104 0 1.696-.784 1.696-1.648v-.192h-1.488c-.512 0-1.248.304-1.248.976 0 .608.512.864 1.04.864zm6.608 5.872 2.096-5.12-3.6-7.632h2.752l2.128 4.88 1.904-4.88h2.576l-5.184 12.752zm-84.412-29.498c-.17-.67-.9-1.61-2.28-1.61-1.53 0-2.7 1.23-2.7 2.87 0 1.62 1.11 2.89 2.69 2.89 1.38 0 2.16-.8 2.33-1.76h-2.81v-1.12h4.14v.43c0 1.98-1.38 3.58-3.65 3.58-2.36 0-3.98-1.71-3.98-3.99 0-2.34 1.72-4.04 3.99-4.04 1.89 0 3.12 1.13 3.48 2.37zm7.8-2.64v1.11h-3.78v2.18h3.44v1.11h-3.44v2.31h3.82v1.12h-5.05v-7.83zm3.3 1.14h-2.48v-1.14h6.2v1.14h-2.49v6.69h-1.23zm8.43 6.69h-1.23v-7.83h1.23zm3.67-6.69h-2.48v-1.14h6.2v1.14h-2.49v6.69h-1.23zm6.68 2.79c0-2.28 1.81-4.04 4.03-4.04s4.01 1.72 4.01 4.01c0 2.31-1.83 4.02-4.04 4.02-2.22 0-4-1.68-4-3.99zm1.29-.03c0 1.59 1.19 2.88 2.73 2.88 1.53 0 2.73-1.29 2.73-2.88s-1.2-2.87-2.73-2.87c-1.54 0-2.73 1.28-2.73 2.87zm14.76 3.93h-1.28l-4.04-6.03v6.03h-1.21v-7.83h1.45l3.86 5.77v-5.77h1.22z" fill="#fff"/></g></svg>