<svg enable-background="new 0 0 128 128" height="300" viewBox="0 0 128 128" width="300" xmlns="http://www.w3.org/2000/svg"><path d="m64 48c-9.7-7.6-9.7-22.4 0-30 9.7 7.6 9.7 22.4 0 30z" fill="#52ddb2"/><path d="m56.8 33.9c-.1 0-.2 0-.3 0-1.6-.2-2.8-1.7-2.7-3.3.7-5.9 3.6-11.2 8.3-14.9 1.3-1 3.2-.8 4.2.5s.8 3.2-.5 4.2c-3.4 2.7-5.6 6.5-6.1 10.9-.1 1.5-1.4 2.6-2.9 2.6z" fill="#444b54"/><path d="m64 48c-1.5-12.3 8.9-22.7 21.2-21.2 1.5 12.3-8.9 22.7-21.2 21.2z" fill="#2b9e7d"/><path d="m63.7 48c1.5-12.3-8.9-22.7-21.2-21.2-1.5 12.3 8.9 22.7 21.2 21.2z" fill="#fff"/><path d="m66.4 51.1c-.8 0-1.7 0-2.5-.1-.2 0-.3 0-.5 0-1.6-.2-2.8-1.7-2.6-3.3v-.2c.1-1.1.8-2 1.8-2.5.8-.3 1.7-.3 2.5.1 4.7.4 9.2-1.3 12.6-4.7 2.9-2.9 4.6-6.7 4.7-10.8-3.4.1-6.7 1.3-9.4 3.4-.9.7-2 .8-3 .4s-1.7-1.3-1.8-2.4c-.5-4.3-2.7-8-6-10.7-1.3-1-1.5-2.9-.5-4.2s2.9-1.5 4.2-.5c3.4 2.7 5.9 6.2 7.3 10.3 3.8-1.9 8.1-2.6 12.4-2.1 1.4.2 2.4 1.2 2.6 2.6.8 6.8-1.5 13.4-6.3 18.3-4.2 4.1-9.7 6.4-15.5 6.4z" fill="#444b54"/><path d="m42.6 35.2c-1.4 0-2.7-1-3-2.5-.3-2.1-.4-4.2-.1-6.3.2-1.4 1.2-2.4 2.6-2.6 6-.7 11.9 1 16.6 4.8 1.3 1 1.5 2.9.4 4.2-1 1.3-2.9 1.5-4.2.4-2.8-2.2-6.1-3.5-9.5-3.6 0 .7.1 1.4.2 2.1.3 1.6-.8 3.2-2.5 3.4-.2.1-.3.1-.5.1z" fill="#444b54"/><path d="m47.6 40c4.3-.2 8.4.4 12.2 1.7 2.7.9 5.7.9 8.4 0 3.8-1.2 7.9-1.8 12.2-1.7 17.7.7 32.3 14.8 33.5 32.5 1.4 20.5-14.8 37.5-34.9 37.5-5.4 0-10.5-1.2-15-3.4-4.5 2.2-9.6 3.4-15 3.4-20.1 0-36.3-17-34.9-37.4 1.2-17.7 15.8-31.9 33.5-32.6z" fill="#ff697d"/><path d="m25.5 61c-.6 0-1.2-.2-1.8-.6-1.3-1-1.6-2.9-.7-4.2 4.8-6.7 12-11.2 20-12.7 1.6-.3 3.2.8 3.5 2.4s-.8 3.2-2.4 3.5c-6.5 1.2-12.3 4.9-16.3 10.3-.4.9-1.3 1.3-2.3 1.3z" fill="#fff"/><path d="m20.6 72.2c-.8 0-1.6-.3-2.1-.9-.1-.1-.3-.3-.4-.5s-.2-.3-.3-.5-.1-.4-.2-.6c0-.2-.1-.4-.1-.6s0-.4.1-.6c0-.2.1-.4.2-.6s.2-.4.3-.5c.1-.2.2-.3.4-.4 1.1-1.1 3.1-1.1 4.2 0 .6.6.9 1.3.9 2.1s-.3 1.6-.9 2.1-1.3 1-2.1 1z" fill="#fff"/><path d="m98.2 45.8c3.6 5.5 5.8 12.1 5.8 19.2 0 19.3-7.2 36-30 36-5 0-7.9-4.8-11-2.8-5.6 3.5-11.9 6-19 4.8-.1 0-.1 0-.2 0-6.4 0-7.4 5.3-1.1 6.4 2 .4 4.1.6 6.3.6 5.4 0 10.5-1.2 15-3.4 4.5 2.1 9.6 3.4 14.9 3.4 18.6.1 34.3-14.8 35.1-33.4.5-12.9-5.9-24.3-15.8-30.8z" fill="#c95065"/><path d="m79 113c-2.4 0-4.9-.2-7.3-.7-5.1-1-10.4-1-15.5 0-2.4.5-4.8.7-7.3.7-10.5 0-20.6-4.4-27.8-12.1-7.1-7.7-10.7-17.9-10-28.5 1.3-19.1 17.3-34.6 36.4-35.4 4.2-.2 8.3.3 12.2 1.5.8.2 1.5.4 2.2.6 2.4.6 5.2 1.2 10.7 4 1.5.7 2.1 2.5 1.4 4s-2.5 2.1-4 1.4c-4.9-2.4-7.2-3-9.5-3.5-.8-.2-1.6-.4-2.5-.6-3.3-1-6.8-1.4-10.3-1.3-16.1.6-29.6 13.7-30.7 29.7-.6 9 2.4 17.5 8.5 24.1 6.2 6.5 14.5 10.1 23.5 10.1 2.1 0 4.1-.2 6.1-.6 5.9-1.1 11.9-1.1 17.8 0 2 .4 4.1.6 6.1.6 9 0 17.3-3.6 23.4-10.2 6.1-6.5 9.1-15.1 8.5-24.1-1.1-16-14.5-29-30.6-29.7-1.7-.1-2.9-1.5-2.9-3.1.1-1.7 1.5-3 3.1-2.9 19.1.7 35.1 16.3 36.4 35.3.7 10.7-2.9 20.8-10.1 28.6-7.2 7.7-17.3 12.1-27.8 12.1z" fill="#444b54"/></svg>