<svg height="56" viewBox="0 0 168 56" width="168" xmlns="http://www.w3.org/2000/svg"><g fill="none" fill-rule="evenodd"><rect fill="#2c3038" height="56" rx="3" width="168"/><path d="m39.356 31.251.997.377-.438.97c-.517 1.144-.774 1.671-1.438 2.678-1.124 1.713-2.538 3.466-4.499 3.484-1.627.011-1.847-.8-3.589-.882-1.595.01-1.955.886-3.598.886h-.039c-2.007-.018-3.424-1.785-4.435-3.323-2.55-3.882-3.059-8.767-1.208-11.616 1.24-1.91 3.247-3.098 5.237-3.098 1.03 0 1.832.286 2.54.538.54.192 1.006.358 1.478.358.414 0 .791-.142 1.27-.323.676-.256 1.52-.574 2.734-.574 1.753 0 3.55.934 4.804 2.497l.747.93-1.046.573c-1.258.689-1.95 1.943-1.85 3.355.1 1.449.995 2.664 2.333 3.17zm-6.254-13.037c-.696.893-1.895 1.585-3.053 1.549-.21-1.152.332-2.336.99-3.135.725-.88 1.965-1.555 3.027-1.628.18 1.203-.314 2.38-.964 3.214zm31.906 19.098h-5.376l-.992 2.688h-2.656l4.784-12.528h3.12l4.8 12.528h-2.672zm-4.528-2.4h3.648l-1.824-4.928zm11.824-3.456v1.056h.032c.816-1.104 2.016-1.216 2.608-1.216 2.512 0 4.064 2.256 4.064 4.416 0 2.224-1.648 4.448-4.128 4.448-.608 0-1.728-.128-2.528-1.104h-.032v5.168h-2.496v-12.768zm-.048 4.256c0 1.296.944 2.192 2.112 2.192s2.112-.896 2.112-2.192c0-1.28-.944-2.16-2.128-2.16-1.152 0-2.096.88-2.096 2.16zm11.024-4.256v1.056h.032c.816-1.104 2.016-1.216 2.608-1.216 2.512 0 4.064 2.256 4.064 4.416 0 2.224-1.648 4.448-4.128 4.448-.608 0-1.728-.128-2.528-1.104h-.032v5.168h-2.496v-12.768zm-.048 4.256c0 1.296.944 2.192 2.112 2.192s2.112-.896 2.112-2.192c0-1.28-.944-2.16-2.128-2.16-1.152 0-2.096.88-2.096 2.16zm17.008 4.48c-3.008 0-4.624-1.52-5.024-3.888l2.416-.576c.208 1.376 1.312 2.128 2.688 2.128 1.2 0 1.888-.64 1.888-1.408 0-.624-.56-1.136-1.424-1.312l-1.776-.352c-2.032-.4-3.344-1.696-3.344-3.6 0-2.24 2.032-3.904 4.432-3.904 2.896 0 4.304 1.728 4.528 3.328l-2.352.704c-.208-.976-.912-1.712-2.192-1.712-1.072 0-1.824.656-1.824 1.392 0 .592.384 1.12 1.296 1.296l1.744.32c2.32.416 3.536 1.904 3.536 3.68 0 1.936-1.632 3.904-4.592 3.904zm9.728-6.576v3.248c0 .656.368 1.088 1.2 1.088.368 0 .432-.016.88-.064v2.032c-.576.176-1.2.192-1.488.192-2.64 0-3.088-1.728-3.088-3.12v-3.376h-1.664v-2.16h1.696v-2.672h2.464v2.672h2.112v2.16zm3.344 2.128c0-2.544 2.096-4.48 4.688-4.48 2.576 0 4.64 1.888 4.64 4.432 0 2.576-2.096 4.496-4.672 4.496-2.592 0-4.656-1.872-4.656-4.448zm2.56-.032c0 1.296.944 2.192 2.112 2.192s2.096-.896 2.096-2.192c0-1.28-.944-2.176-2.112-2.176s-2.096.896-2.096 2.176zm13.824-4.256v2.448c-.336-.064-.688-.064-.8-.064-1.2 0-2.032.832-2.032 2.416v3.744h-2.448v-8.544h2.368v1.248h.032c.464-.976 1.328-1.344 2.208-1.344.192 0 .496.048.672.096zm3.376 3.312h3.68c-.048-.624-.576-1.488-1.824-1.488-1.12 0-1.76.928-1.856 1.488zm6.144 1.648h-6.208c.16 1.072 1.072 1.68 2.112 1.68.72 0 1.52-.432 1.808-1.136l2.048.704c-.56 1.648-2.144 2.528-3.824 2.528-2.592 0-4.688-1.824-4.688-4.48 0-2.464 2.064-4.464 4.528-4.464 2.544 0 4.256 1.744 4.256 4.272 0 .304 0 .608-.032.896zm-75.556-19.326c0 1.8-1.27 3.91-4.16 3.91h-2.5v-7.83h2.48c3.01 0 4.18 2.29 4.18 3.92zm-1.29 0c0-1.22-.85-2.78-2.91-2.78h-1.23v5.55h1.22c2.06 0 2.92-1.46 2.92-2.77zm2.19 1.23c0-1.58 1.28-2.77 2.83-2.77 1.53 0 2.8 1.18 2.8 2.75 0 1.58-1.24 2.79-2.81 2.79-1.54 0-2.82-1.19-2.82-2.77zm1.22-.02c0 .91.64 1.71 1.61 1.71s1.59-.77 1.59-1.69-.63-1.69-1.6-1.69c-.96 0-1.6.75-1.6 1.67zm10.97 1.14 1.12-3.78h1.22l-1.71 5.34h-1.24l-1.23-3.75h-.02l-1.24 3.75h-1.22l-1.71-5.34h1.25l1.12 3.77h.01l1.21-3.77h1.2l1.22 3.78zm6.95-1.43c0-.76-.36-1.33-1.18-1.33-.75 0-1.23.54-1.23 1.35v2.97h-1.19v-5.34h1.16v.72c.51-.69 1.21-.83 1.63-.83 1.36 0 2 .95 2 2.16v3.29h-1.19zm3.92 2.99h-1.19v-8.14h1.19zm1.22-2.68c0-1.58 1.28-2.77 2.83-2.77 1.53 0 2.8 1.18 2.8 2.75 0 1.58-1.24 2.79-2.81 2.79-1.54 0-2.82-1.19-2.82-2.77zm1.22-.02c0 .91.64 1.71 1.61 1.71s1.59-.77 1.59-1.69-.63-1.69-1.6-1.69c-.96 0-1.6.75-1.6 1.67zm9.86 2.7h-1.17v-.73c-.39.65-1.07.82-1.57.82-1.04 0-1.8-.65-1.8-1.57v-.06c0-1.24 1.29-1.63 2.22-1.63h.66c.36 0 .5-.19.5-.45 0-.42-.35-.81-1.05-.81-.65 0-1.08.37-1.17.88l-1.08-.24c.05-.45.46-1.13 1.2-1.45.31-.14.69-.21 1.08-.21.9 0 1.65.32 2 1.09.13.29.18.6.18.96zm-1.17-2.16v-.17h-1.15c-.45 0-1.03.24-1.03.74 0 .44.35.73.85.73.81 0 1.33-.5 1.33-1.3zm2.34-.52c0-1.34.99-2.76 2.66-2.76.47 0 1.33.23 1.73.86v-3.56h1.19v8.14h-1.16v-.83c-.42.69-1.36.91-1.79.91-1.54 0-2.63-1.32-2.63-2.76zm4.41 0c0-.92-.64-1.69-1.6-1.69-.97 0-1.6.77-1.6 1.69s.64 1.68 1.6 1.68 1.6-.76 1.6-1.68zm5.09-1.22c0-2.28 1.81-4.04 4.03-4.04s4.01 1.72 4.01 4.01c0 2.31-1.83 4.02-4.04 4.02-2.22 0-4-1.68-4-3.99zm1.29-.03c0 1.59 1.19 2.88 2.73 2.88 1.53 0 2.73-1.29 2.73-2.88s-1.2-2.87-2.73-2.87c-1.54 0-2.73 1.28-2.73 2.87zm11.63.94c0-.76-.36-1.33-1.18-1.33-.75 0-1.23.54-1.23 1.35v2.97h-1.19v-5.34h1.16v.72c.51-.69 1.21-.83 1.63-.83 1.36 0 2 .95 2 2.16v3.29h-1.19zm6.89-3.7h-2.48v-1.14h6.2v1.14h-2.49v6.69h-1.23zm8.32 3.7c0-.76-.36-1.33-1.18-1.33-.75 0-1.23.54-1.23 1.35v2.97h-1.19v-8.14h1.19v3.48c.51-.65 1.18-.79 1.6-.79 1.36 0 2 .95 2 2.16v3.29h-1.19zm5.06-1.44c-.73 0-1.3.48-1.41 1.21h2.8c-.04-.76-.65-1.21-1.39-1.21zm2.58 2.11h-4.05c.02.82.78 1.39 1.56 1.39.65 0 1.2-.25 1.42-.9l.99.34c-.3 1-1.33 1.59-2.39 1.59-1.58 0-2.8-1.19-2.8-2.78 0-1.51 1.14-2.77 2.69-2.77 1.66 0 2.6 1.15 2.6 2.76 0 .12 0 .24-.02.37z" fill="#fff"/></g></svg>